<?xml version="1.0" standalone="no"?><!DOCTYPE svg PUBLIC "-//W3C//DTD SVG 1.1//EN" "http://www.w3.org/Graphics/SVG/1.1/DTD/svg11.dtd"><svg t="1631204814335" class="icon" viewBox="0 0 1024 1024" version="1.1" xmlns="http://www.w3.org/2000/svg" p-id="6673" xmlns:xlink="http://www.w3.org/1999/xlink" width="200" height="200"><defs><style type="text/css"></style></defs><path d="M802.1 943.3H228c-70.5 0-127.9-57.4-127.9-127.9V271.6c0-70.5 57.4-127.9 127.9-127.9h574.1c70.5 0 127.9 57.4 127.9 127.9v543.8c0 70.5-57.4 127.9-127.9 127.9zM228 229.9c-23 0-41.7 18.7-41.7 41.7v543.8c0 23 18.7 41.7 41.7 41.7h574.1c23 0 41.7-18.7 41.7-41.7V271.6c0-23-18.7-41.7-41.7-41.7H228z" fill="#8a8a8a" p-id="6674"></path><path d="M329 292.2c-23.8 0-43.1-19.3-43.1-43.1V124.4c0-23.8 19.3-43.1 43.1-43.1s43.1 19.3 43.1 43.1V249c0 23.9-19.3 43.2-43.1 43.2zM711.5 292.2c-23.8 0-43.1-19.3-43.1-43.1V124.4c0-23.8 19.3-43.1 43.1-43.1s43.1 19.3 43.1 43.1V249c0 23.9-19.3 43.2-43.1 43.2zM886.9 448.1H143.2c-23.8 0-43.1-19.3-43.1-43.1s19.3-43.1 43.1-43.1h743.7c23.8 0 43.1 19.3 43.1 43.1s-19.3 43.1-43.1 43.1zM536.3 614.2h-42.6c-23.8 0-43.1-19.3-43.1-43.1s19.3-43.1 43.1-43.1h42.6c23.8 0 43.1 19.3 43.1 43.1s-19.3 43.1-43.1 43.1zM335 614.2h-42.6c-23.8 0-43.1-19.3-43.1-43.1s19.3-43.1 43.1-43.1H335c23.8 0 43.1 19.3 43.1 43.1s-19.3 43.1-43.1 43.1zM732.7 614.2h-42.6c-23.8 0-43.1-19.3-43.1-43.1s19.3-43.1 43.1-43.1h42.6c23.8 0 43.1 19.3 43.1 43.1s-19.2 43.1-43.1 43.1zM536.3 762.8h-42.6c-23.8 0-43.1-19.3-43.1-43.1s19.3-43.1 43.1-43.1h42.6c23.8 0 43.1 19.3 43.1 43.1s-19.3 43.1-43.1 43.1zM335 762.8h-42.6c-23.8 0-43.1-19.3-43.1-43.1s19.3-43.1 43.1-43.1H335c23.8 0 43.1 19.3 43.1 43.1s-19.3 43.1-43.1 43.1z" fill="#8a8a8a" p-id="6675"></path></svg>