<?xml version="1.0" standalone="no"?><!DOCTYPE svg PUBLIC "-//W3C//DTD SVG 1.1//EN" "http://www.w3.org/Graphics/SVG/1.1/DTD/svg11.dtd"><svg t="1632384965717" class="icon" viewBox="0 0 1024 1024" version="1.1" xmlns="http://www.w3.org/2000/svg" p-id="10066" xmlns:xlink="http://www.w3.org/1999/xlink" width="200" height="200"><defs><style type="text/css"></style></defs><path d="M733.76 443.728H290.144v-106.032c0-16.784 12.816-30.496 28.496-30.496h386.752c15.68 0 28.48 13.712 28.48 30.496v106.032h-0.08z" fill="#A5BBFF" p-id="10067"></path><path d="M512 0C229.264 0 0 227.296 0 507.6c0 160.64 75.328 303.856 192.752 396.928v-433.12a28.8 28.8 0 0 1 28.832-28.592h582.336a28.8 28.8 0 0 1 28.832 28.592v432.032C949.28 810.368 1024 667.648 1024 507.6 1024 227.296 794.736 0 512 0z" fill="#FA7D4F" p-id="10068"></path><path d="M790.848 443.728H216.192c-15.664 0-28.464 13.04-28.464 28.976v439.008C274.08 982 383.648 1024 502.768 1024c119.824 0 229.792-42.4 316.432-113.392V472.608c0.096-15.84-12.704-28.88-28.352-28.88z" fill="#FFFFFF" p-id="10069"></path><path d="M669.328 547.424c0 19.52-15.392 35.424-34.32 35.424h-259.36c-18.912 0-34.32-15.888-34.32-35.424 0-19.52 15.408-35.424 34.32-35.424h259.36c18.928 0 34.32 15.888 34.32 35.424z m1.184 83.792l2.736 2.832c12.56 12.96 12.56 34.208 0 47.264L473.52 887.472l-48.544-50.096L624.72 631.2a31.84 31.84 0 0 1 45.792 0z" fill="#FA7D4F" p-id="10070"></path><path d="M350.864 710.464a36.272 36.272 0 0 1 51.52 0l126.688 127.808-48.768 49.2-129.44-130.592a33.024 33.024 0 0 1 0-46.4z" fill="#FA7D4F" p-id="10071"></path><path d="M733.872 443.728H290.128V352.8c0-15.712 12.544-28.528 27.92-28.528h387.904c15.376 0 27.92 12.8 27.92 28.528v90.928z" fill="#FFBE89" p-id="10072"></path></svg>