<?xml version="1.0" standalone="no"?><!DOCTYPE svg PUBLIC "-//W3C//DTD SVG 1.1//EN" "http://www.w3.org/Graphics/SVG/1.1/DTD/svg11.dtd"><svg t="1623641211748" class="icon" viewBox="0 0 1024 1024" version="1.1" xmlns="http://www.w3.org/2000/svg" p-id="6707" xmlns:xlink="http://www.w3.org/1999/xlink" width="200" height="200"><defs><style type="text/css"></style></defs><path d="M142.2 896.6c-24.9 0-45-20.2-45-45V396.7c0-24.9 20.2-45 45-45s45 20.2 45 45v454.8c0 24.9-20.2 45.1-45 45.1zM762.6 953.3H537.8c-58.6 0-115.3-17.2-164-49.8l-14-9.3h-54.7c-24.9 0-45-20.2-45-45V396.7c0-24.9 20.2-45 45-45h71.8c25.8 0 48.2-19.3 51.9-44.8l20.5-138.5c4.6-31 21.1-58 46.5-76.3 25.4-18.2 56.4-25.2 87.1-19.6 52 9.5 95.1 44.3 115.3 93.2 20.9 50.6 24 107.5 8.9 160.1l-7.5 26h108.8c65.6 0 119 53.4 119 119v337.3c0 30-11.1 58.7-31.4 80.8l-8.8 9.6c-31.8 34.7-77.3 54.8-124.6 54.8zM350.2 804h23.4c8.9 0 17.6 2.7 25.1 7.6l25.3 17c33.8 22.6 73.2 34.6 113.9 34.6h224.8c22.1 0 43.3-9.3 58.2-25.6l8.8-9.6c5-5.5 7.8-12.6 7.8-20.1V470.6c0-15.9-13-28.9-28.9-28.9H639.8c-14.1 0-27.5-6.7-36-18s-11.2-26-7.3-39.6l24.1-83.5c9.5-33.1 7.6-68.9-5.6-100.8-8.4-20.4-26.4-34.9-48.1-38.9-8.9-1.6-15.4 1.9-18.5 4.2-3.1 2.2-8.6 7.3-9.9 16.2L518 319.9c-10.3 69.4-70.9 121.8-141.1 121.8h-26.7V804z" fill="#5975ff" p-id="6708"></path></svg>