<?xml version="1.0" standalone="no"?><!DOCTYPE svg PUBLIC "-//W3C//DTD SVG 1.1//EN" "http://www.w3.org/Graphics/SVG/1.1/DTD/svg11.dtd"><svg t="1623641525042" class="icon" viewBox="0 0 1024 1024" version="1.1" xmlns="http://www.w3.org/2000/svg" p-id="7323" xmlns:xlink="http://www.w3.org/1999/xlink" width="200" height="200"><defs><style type="text/css"></style></defs><path d="M583 928.3c-11.5 0-23-4.4-31.7-13.2L110.9 474.8c-8.4-8.4-13.2-19.9-13.2-31.8 0-11.9 4.8-23.3 13.2-31.8l56.6-56.4c23.8-23.8 55.5-36.9 89.2-36.9s65.4 13.1 89.3 37l1.9 1.9 192.3-192.3c88.7-88.5 232.9-88.5 321.3 0 43 42.9 66.6 100 66.6 160.7 0 60.7-23.7 117.7-66.6 160.7L669.3 678.1l1.9 1.9c23.8 23.8 37 55.6 37 89.4 0 33.8-13.1 65.5-37 89.4l-56.4 56.4c-8.8 8.7-20.3 13.1-31.8 13.1zM206.2 443.1L583 819.9l24.7-24.7c6.9-6.9 10.7-16.1 10.7-25.9 0-9.8-3.8-19-10.7-25.9l-33.6-33.6c-17.5-17.5-17.5-45.9 0-63.5l224-224c26-26 40.3-60.5 40.3-97.2S824.1 254 798.1 228c-53.5-53.5-140.7-53.5-194.4 0.1l-224 224c-17.5 17.5-45.9 17.5-63.5 0l-33.6-33.6c-13.8-13.8-37.8-13.8-51.6 0l-24.8 24.6zM315.2 926.4c-11.5 0-23-4.4-31.7-13.2-17.5-17.5-17.5-45.9 0-63.5l45.8-45.8c17.5-17.5 45.9-17.5 63.5 0 17.5 17.5 17.5 45.9 0 63.5L347 913.3c-8.8 8.7-20.3 13.1-31.8 13.1z" fill="#5975ff" p-id="7324"></path><path d="M591.3 411.6c-11.5 0-23-4.4-31.7-13.1-17.5-17.5-17.5-45.9 0-63.5l45.8-45.8c17.5-17.5 45.9-17.5 63.5 0 17.5 17.5 17.5 45.9 0 63.5l-45.8 45.8c-8.8 8.7-20.3 13.1-31.8 13.1zM146.6 757.8c-11.5 0-23-4.4-31.7-13.2-17.5-17.5-17.5-45.9 0-63.5l45.8-45.8c17.5-17.5 46-17.5 63.5 0s17.5 45.9 0 63.5l-45.8 45.8c-8.8 8.8-20.3 13.2-31.8 13.2z" fill="#5975ff" p-id="7325"></path></svg>