<?xml version="1.0" standalone="no"?><!DOCTYPE svg PUBLIC "-//W3C//DTD SVG 1.1//EN" "http://www.w3.org/Graphics/SVG/1.1/DTD/svg11.dtd"><svg t="1623569350398" class="icon" viewBox="0 0 1024 1024" version="1.1" xmlns="http://www.w3.org/2000/svg" p-id="6037" xmlns:xlink="http://www.w3.org/1999/xlink" width="200" height="200"><defs><style type="text/css"></style></defs><path d="M511.3 676.7c-168.9 0-306.4-137.5-306.4-306.4S342.4 63.9 511.3 63.9c169 0 306.4 137.5 306.4 306.4S680.3 676.7 511.3 676.7z m0-523.4c-119.6 0-216.9 97.3-216.9 216.9s97.3 216.9 216.9 216.9 216.9-97.3 216.9-216.9-97.3-216.9-216.9-216.9zM853.5 958.5H169.1c-24.7 0-44.7-20-44.7-44.7v-71.5c0-74 60.2-134.3 134.3-134.3H764c74 0 134.3 60.2 134.3 134.3v71.5c0 24.6-20.1 44.7-44.8 44.7zM213.9 869h594.9v-26.8c0-24.7-20.1-44.8-44.8-44.8H258.7c-24.7 0-44.8 20.1-44.8 44.8V869z" fill="#5975ff" p-id="6038"></path><path d="M413.2 345m-45.3 0a45.3 45.3 0 1 0 90.6 0 45.3 45.3 0 1 0-90.6 0Z" fill="#5975ff" p-id="6039"></path><path d="M610 345m-45.3 0a45.3 45.3 0 1 0 90.6 0 45.3 45.3 0 1 0-90.6 0Z" fill="#5975ff" p-id="6040"></path></svg>