<?xml version="1.0" standalone="no"?><!DOCTYPE svg PUBLIC "-//W3C//DTD SVG 1.1//EN" "http://www.w3.org/Graphics/SVG/1.1/DTD/svg11.dtd"><svg t="1625318110116" class="icon" viewBox="0 0 1024 1024" version="1.1" xmlns="http://www.w3.org/2000/svg" p-id="12274" xmlns:xlink="http://www.w3.org/1999/xlink" width="200" height="200"><defs><style type="text/css"></style></defs><path d="M811.4 927.2H213.2c-64.3 0-116.6-52.3-116.6-116.6V624.9c0-27.1 13.6-52 36.4-66.8 22.7-14.7 51.1-16.8 75.8-5.7L500.6 684c8.6 3.9 18.5 3.8 27.1-0.1l288-131.2c24.7-11.3 53.1-9.2 75.9 5.5C914.4 573 928 598 928 625.1v185.5c0 64.3-52.3 116.6-116.6 116.6zM179.7 630.6v180c0 18.5 15 33.5 33.5 33.5h598.2c18.5 0 33.5-15 33.5-33.5V630.8L562.1 759.7c-30.4 13.9-65.4 13.9-95.7 0.2L179.7 630.6z" fill="#5975ff" p-id="12275"></path><path d="M791.8 645.5c-23 0-41.6-18.6-41.6-41.6V214.3c0-18.6-15.1-33.7-33.7-33.7H308.1c-18.6 0-33.8 15.1-33.8 33.7v389.6c0 23-18.6 41.6-41.6 41.6s-41.6-18.6-41.6-41.6V214.3c0-64.4 52.4-116.9 116.9-116.9h408.3c64.4 0 116.9 52.4 116.9 116.9v389.6c0.1 23-18.5 41.6-41.4 41.6z" fill="#5975ff" p-id="12276"></path><path d="M541.9 330.7H388.3c-23 0-41.6-18.6-41.6-41.6s18.6-41.6 41.6-41.6h153.6c23 0 41.6 18.6 41.6 41.6-0.1 22.9-18.7 41.6-41.6 41.6zM634 501H388.3c-23 0-41.6-18.6-41.6-41.6s18.6-41.6 41.6-41.6H634c23 0 41.6 18.6 41.6 41.6S657 501 634 501z" fill="#5975ff" p-id="12277"></path></svg>