<?xml version="1.0" standalone="no"?><!DOCTYPE svg PUBLIC "-//W3C//DTD SVG 1.1//EN" "http://www.w3.org/Graphics/SVG/1.1/DTD/svg11.dtd"><svg t="1633262587378" class="icon" viewBox="0 0 1024 1024" version="1.1" xmlns="http://www.w3.org/2000/svg" p-id="19550" xmlns:xlink="http://www.w3.org/1999/xlink" width="200" height="200"><defs><style type="text/css"></style></defs><path d="M512 512m-512 0a512 512 0 1 0 1024 0 512 512 0 1 0-1024 0Z" fill="#278BED" p-id="19551"></path><path d="M209.6128 727.381333a25.6 25.6 0 0 1-19.933867-41.642666l209.783467-261.290667a25.565867 25.565867 0 0 1 31.0272-7.0656l168.106667 80.247467 202.205866-211.1488a25.6 25.6 0 1 1 36.9664 35.396266l-215.04 224.529067a25.463467 25.463467 0 0 1-29.525333 5.393067l-166.536533-79.496534-197.085867 245.486934a25.6 25.6 0 0 1-19.968 9.591466zM275.0464 523.229867a25.531733 25.531733 0 0 1-15.7696-5.4272l-70.3488-55.057067a25.6 25.6 0 0 1 31.5392-40.3456l70.382933 55.057067a25.6 25.6 0 0 1-15.803733 45.7728z" fill="#FFFFFF" p-id="19552"></path><path d="M620.4416 753.0496a25.668267 25.668267 0 0 1-14.370133-4.4032l-212.957867-144.2816a25.6 25.6 0 1 1 28.706133-42.3936l196.471467 133.12 183.9104-163.4304a25.6 25.6 0 0 1 34.133333 38.263467l-198.7584 176.674133a25.6 25.6 0 0 1-17.134933 6.4512z" fill="#FFFFFF" p-id="19553"></path></svg>