<?xml version="1.0" standalone="no"?><!DOCTYPE svg PUBLIC "-//W3C//DTD SVG 1.1//EN" "http://www.w3.org/Graphics/SVG/1.1/DTD/svg11.dtd"><svg t="1623641223146" class="icon" viewBox="0 0 1024 1024" version="1.1" xmlns="http://www.w3.org/2000/svg" p-id="6910" xmlns:xlink="http://www.w3.org/1999/xlink" width="200" height="200"><defs><style type="text/css"></style></defs><path d="M809.1 470.7c-24.6 0-44.5-19.9-44.5-44.5 0-149.9-113.6-271.9-253.3-271.9S258 276.3 258 426.2c0 24.6-19.9 44.5-44.5 44.5S169 450.8 169 426.2c0-199 153.5-360.8 342.2-360.8s342.2 161.9 342.2 360.8c0.2 24.6-19.8 44.5-44.3 44.5z" fill="#5975ff" p-id="6911"></path><path d="M246.8 703.3h-64c-48.6 0-88.1-39.5-88.1-88.1V493.7c0-46.3 37.7-84 84-84h68.2c47.2 0 85.7 38.4 85.7 85.6v122.3c-0.1 47.3-38.5 85.7-85.8 85.7z m-63.2-204.7v116.6l60-0.8V498.6h-60z m63.2 115.8z m0-115.8h0.2-0.2zM842.4 703.3h-64.1c-48.6 0-88.1-39.5-88.1-88.1V493.7c0-46.3 37.7-84 84-84h68.2c47.2 0 85.6 38.4 85.6 85.6v122.3c0 47.3-38.4 85.7-85.6 85.7z m-63.3-204.7v116.6l59.9-0.8V498.6h-59.9z m63.3 115.8c-0.1 0-0.1 0 0 0z m0-115.8h0.2-0.2zM411 822.4h200.6v132.4H411zM511.3 703.3c-84.1 0-124.5-54.2-135.2-86.2-7.8-23.3 4.8-48.5 28.1-56.2 23-7.7 47.8 4.5 55.9 27.1 2 4.8 13.1 26.4 51.2 26.4 41.3 0 50.8-25.2 50.9-25.4 7.8-23.3 32.9-35.9 56.3-28.1 23.3 7.8 35.9 33 28.1 56.2-10.7 32-51.2 86.2-135.3 86.2z" fill="#5975ff" p-id="6912"></path><path d="M737.8 937.2H549.6c-24.6 0-44.5-19.9-44.5-44.5s19.9-44.5 44.5-44.5h188.3c19.9 0 36.1-16.2 36.1-36.1v-146c0-24.6 19.9-44.5 44.5-44.5s44.5 19.9 44.5 44.5v146c-0.1 69.1-56.2 125.1-125.2 125.1z" fill="#5975ff" p-id="6913"></path></svg>