<?xml version="1.0" standalone="no"?><!DOCTYPE svg PUBLIC "-//W3C//DTD SVG 1.1//EN" "http://www.w3.org/Graphics/SVG/1.1/DTD/svg11.dtd"><svg t="1626962025136" class="icon" viewBox="0 0 1024 1024" version="1.1" xmlns="http://www.w3.org/2000/svg" p-id="6431" xmlns:xlink="http://www.w3.org/1999/xlink" width="200" height="200"><defs><style type="text/css">@font-face { font-family: feedback-iconfont; src: url("//at.alicdn.com/t/font_1031158_1uhr8ri0pk5.eot?#iefix") format("embedded-opentype"), url("//at.alicdn.com/t/font_1031158_1uhr8ri0pk5.woff2") format("woff2"), url("//at.alicdn.com/t/font_1031158_1uhr8ri0pk5.woff") format("woff"), url("//at.alicdn.com/t/font_1031158_1uhr8ri0pk5.ttf") format("truetype"), url("//at.alicdn.com/t/font_1031158_1uhr8ri0pk5.svg#iconfont") format("svg"); }
</style></defs><path d="M744.4 426.6c-90.5 0-164.2-73.7-164.2-164.2 0-90.5 73.7-164.2 164.2-164.2 90.5 0 164.2 73.7 164.2 164.2-0.1 90.5-73.7 164.2-164.2 164.2z m0-245.4c-44.8 0-81.2 36.4-81.2 81.2 0 44.8 36.4 81.2 81.2 81.2s81.2-36.4 81.2-81.2c0-44.8-36.4-81.2-81.2-81.2zM271.2 722.6c-97 0-175.9-78.9-175.9-175.9s78.9-175.9 175.9-175.9 175.9 78.9 175.9 175.9-78.9 175.9-175.9 175.9z m0-268.9c-51.2 0-93 41.7-93 93s41.7 93 93 93 93-41.7 93-93-41.7-93-93-93zM790.9 924.1c-74 0-134.1-60.2-134.1-134.1S717 655.9 790.9 655.9 925 716 925 790s-60.2 134.1-134.1 134.1z m0-185.3c-28.2 0-51.1 22.9-51.1 51.1 0 28.2 23 51.1 51.1 51.1s51.1-22.8 51.1-51-22.9-51.2-51.1-51.2z" fill="#5975ff" p-id="6432"></path><path d="M380.9 510.4c-13.8 0-27.4-6.9-35.2-19.5-12.1-19.4-6.2-45 13.2-57.2l240.8-150.3c19.4-12.1 45-6.2 57.1 13.2 12.1 19.4 6.2 45-13.2 57.2L402.8 504.1c-6.8 4.3-14.4 6.3-21.9 6.3zM698.2 800.6c-4.6 0-9.3-0.8-14-2.4l-331-118.3c-21.6-7.7-32.8-31.4-25.1-53 7.7-21.6 31.5-32.8 53-25.1l331.1 118.3c21.6 7.7 32.8 31.4 25.1 53-6.1 17-22 27.5-39.1 27.5z" fill="#5975ff" p-id="6433"></path></svg>