<?xml version="1.0" standalone="no"?>
<!DOCTYPE svg PUBLIC "-//W3C//DTD SVG 1.1//EN" "http://www.w3.org/Graphics/SVG/1.1/DTD/svg11.dtd">
<svg t="1625373760213" class="icon" viewBox="0 0 1024 1024" version="1.1"
    xmlns="http://www.w3.org/2000/svg" p-id="30516"
    xmlns:xlink="http://www.w3.org/1999/xlink" width="200" height="200">
    <defs>
        <style type="text/css"></style>
    </defs>
    <path d="M510.3 472.1m-46.7 0a46.7 46.7 0 1 0 93.4 0 46.7 46.7 0 1 0-93.4 0Z" fill="#ffffff" p-id="30517"></path>
    <path d="M721.4 863.9c-13.2 0-26.3-6.3-34.3-18.1-13-18.9-8.2-44.8 10.8-57.8 90.6-62.1 144.8-164.7 144.8-274.4 0-183.3-149.1-332.4-332.4-332.4S177.9 330.4 177.9 513.6c0 109.7 54.1 212.3 144.7 274.4 18.9 13 23.8 38.8 10.8 57.8-12.9 18.9-38.8 23.8-57.8 10.8C162.4 779 94.8 650.8 94.8 513.6c0-229.1 186.4-415.5 415.5-415.5s415.5 186.4 415.5 415.5c0 137.1-67.6 265.3-180.9 343-7.2 4.9-15.4 7.3-23.5 7.3z" fill="#ffffff" p-id="30518"></path>
    <path d="M642.5 719.7c-12.2 0-24.2-5.3-32.4-15.5-14.4-17.9-11.5-44 6.3-58.4 40.2-32.4 63.3-80.6 63.3-132.2 0-52.2-23.6-100.8-64.6-133.2-18-14.2-21.1-40.3-6.9-58.4 14.2-18 40.4-21.1 58.4-6.9 61.1 48.3 96.2 120.6 96.2 198.4 0 76.9-34.4 148.7-94.3 196.9-7.6 6.3-16.8 9.3-26 9.3zM374.9 717.2c-9.4 0-18.8-3.2-26.6-9.7-57.6-48.2-90.7-118.9-90.7-193.9 0-75.4 33.3-146.2 91.3-194.4 17.7-14.6 43.9-12.2 58.5 5.4 14.7 17.6 12.3 43.8-5.4 58.5-39 32.4-61.3 79.9-61.3 130.5 0 50.4 22.2 97.8 60.9 130.2 17.6 14.7 19.9 40.9 5.2 58.5-8.2 9.9-20 14.9-31.9 14.9zM510.3 929.1c-22.9 0-41.5-18.6-41.5-41.5V596.7c0-22.9 18.6-41.5 41.5-41.5s41.5 18.6 41.5 41.5v290.8c0 23-18.6 41.6-41.5 41.6z" fill="#ffffff" p-id="30519"></path>
</svg>