<?xml version="1.0" standalone="no"?><!DOCTYPE svg PUBLIC "-//W3C//DTD SVG 1.1//EN" "http://www.w3.org/Graphics/SVG/1.1/DTD/svg11.dtd"><svg t="1627290058994" class="icon" viewBox="0 0 1024 1024" version="1.1" xmlns="http://www.w3.org/2000/svg" p-id="6443" xmlns:xlink="http://www.w3.org/1999/xlink" width="200" height="200"><defs><style type="text/css">@font-face { font-family: feedback-iconfont; src: url("//at.alicdn.com/t/font_1031158_1uhr8ri0pk5.eot?#iefix") format("embedded-opentype"), url("//at.alicdn.com/t/font_1031158_1uhr8ri0pk5.woff2") format("woff2"), url("//at.alicdn.com/t/font_1031158_1uhr8ri0pk5.woff") format("woff"), url("//at.alicdn.com/t/font_1031158_1uhr8ri0pk5.ttf") format("truetype"), url("//at.alicdn.com/t/font_1031158_1uhr8ri0pk5.svg#iconfont") format("svg"); }
</style></defs><path d="M312.2 351.7m-45.3 0a45.3 45.3 0 1 0 90.6 0 45.3 45.3 0 1 0-90.6 0Z" fill="#5975ff" p-id="6444"></path><path d="M516.2 351.7m-45.3 0a45.3 45.3 0 1 0 90.6 0 45.3 45.3 0 1 0-90.6 0Z" fill="#5975ff" p-id="6445"></path><path d="M606.9 623.2m-39.2 0a39.2 39.2 0 1 0 78.4 0 39.2 39.2 0 1 0-78.4 0Z" fill="#5975ff" p-id="6446"></path><path d="M764.8 623.2m-39.2 0a39.2 39.2 0 1 0 78.4 0 39.2 39.2 0 1 0-78.4 0Z" fill="#5975ff" p-id="6447"></path><path d="M409.7 746.6c-63.1 0-124.1-16.2-177.8-46.9L121.8 726c-16.1 3.9-33.1-1.6-44-14.1-10.9-12.5-14-30.1-8-45.5l36.4-93.4c-26-46.5-39.6-98.1-39.6-150.6 0-178.7 153.9-324.2 343.1-324.2s343.1 145.4 343.1 324.2c0 9.6-0.5 19.2-1.4 28.5-2.5 24.5-24.5 42.2-48.9 39.9-6.6-0.7-13.2-1-19.7-1-103.3 0-187.3 77.4-187.3 172.6 0 9.2 0.9 18.7 2.6 29 2 11.9-0.9 24.1-8 33.9-7.1 9.7-17.9 16.2-29.8 17.8-16.5 2.3-33.5 3.5-50.6 3.5zM239.4 607.3c8.6 0 17 2.5 24.3 7.2 42.1 27.4 91.3 42.1 142.5 42.7 2.8-135.6 115-246.3 256.3-256C650.9 281.6 542 187.5 409.7 187.5c-140 0-253.8 105.4-253.8 234.9 0 42.7 12.9 84.8 37.2 121.8 8 12.1 9.6 27.3 4.3 40.7L184 619.3l45-10.8c3.5-0.8 7-1.2 10.4-1.2z" fill="#5975ff" p-id="6448"></path><path d="M682.8 924.1c-135.2 0-249.9-91.4-272.7-217.3-2.7-15.8-3.9-30.1-3.9-44.4 0-144.4 124.1-261.9 276.6-261.9 9.5 0 19.1 0.5 28.6 1.4 141.3 13.7 248 125.7 248 260.5 0 40.7-10.3 81-29.8 117.7l26.6 68c6 15.5 3 33-7.9 45.6-10.9 12.5-27.9 18-44 14.1l-81.8-19.6c-42.5 23.6-90.4 35.9-139.7 35.9z m0-434.3c-103.3 0-187.3 77.4-187.3 172.6 0 9.2 0.9 18.7 2.6 29 15 82.9 92.7 143.4 184.7 143.4 38.7 0 76-11 107.9-31.7 10.3-6.7 22.8-8.9 34.7-6l16.6 4-3.4-8.8c-5.3-13.4-3.7-28.6 4.2-40.7 18.2-27.8 27.4-57.8 27.4-89.2 0-88.6-72-162.4-167.4-171.6-6.9-0.7-13.4-1-20-1z" fill="#5975ff" p-id="6449"></path></svg>